<?xml version="1.0" encoding="UTF-8" standalone="no"?><svg xmlns="http://www.w3.org/2000/svg" xmlns:xlink="http://www.w3.org/1999/xlink" contentScriptType="application/ecmascript" contentStyleType="text/css" height="619px" preserveAspectRatio="none" style="width:701px;height:619px;background:#FFFFFF;" version="1.1" viewBox="0 0 701 619" width="701px" zoomAndPan="magnify"><defs><filter height="300%" id="f96fu34yzcahz" width="300%" x="-1" y="-1"><feGaussianBlur result="blurOut" stdDeviation="2.0"/><feColorMatrix in="blurOut" result="blurOut2" type="matrix" values="0 0 0 0 0 0 0 0 0 0 0 0 0 0 0 0 0 0 .4 0"/><feOffset dx="4.0" dy="4.0" in="blurOut2" result="blurOut3"/><feBlend in="SourceGraphic" in2="blurOut3" mode="normal"/></filter></defs><g><!--MD5=[d4d1e65b96ab2c2b104d895ec1814e3e]
class Fiche--><rect codeLine="1" fill="#FEFECE" filter="url(#f96fu34yzcahz)" height="112.0234" id="Fiche" style="stroke:#A80036;stroke-width:1.5;" width="111" x="112" y="26"/><ellipse cx="147.7" cy="42" fill="#A9DCDF" rx="11" ry="11" style="stroke:#A80036;stroke-width:1.0;"/><path d="M147.8094,37.3438 L146.6531,42.4219 L148.9813,42.4219 L147.8094,37.3438 Z M146.325,35.1094 L149.3094,35.1094 L152.6688,47.5 L150.2156,47.5 L149.45,44.4375 L146.1688,44.4375 L145.4188,47.5 L142.9813,47.5 L146.325,35.1094 Z " fill="#000000"/><text fill="#000000" font-family="sans-serif" font-size="12" font-style="italic" lengthAdjust="spacing" textLength="33" x="166.3" y="46.1543">Fiche</text><line style="stroke:#A80036;stroke-width:1.5;" x1="113" x2="222" y1="58" y2="58"/><rect fill="none" height="6" style="stroke:#C82930;stroke-width:1.0;" width="6" x="120" y="66"/><text fill="#000000" font-family="sans-serif" font-size="11" lengthAdjust="spacing" textLength="76" x="132" y="72.2104">String intitule</text><rect fill="none" height="6" style="stroke:#C82930;stroke-width:1.0;" width="6" x="120" y="78.8047"/><text fill="#000000" font-family="sans-serif" font-size="11" lengthAdjust="spacing" textLength="85" x="132" y="85.0151">double PTVTTC</text><line style="stroke:#A80036;stroke-width:1.5;" x1="113" x2="222" y1="91.6094" y2="91.6094"/><ellipse cx="123" cy="102.6094" fill="#84BE84" rx="3" ry="3" style="stroke:#038048;stroke-width:1.0;"/><text fill="#000000" font-family="sans-serif" font-size="11" lengthAdjust="spacing" textLength="49" x="132" y="105.8198">getters()</text><ellipse cx="123" cy="115.4141" fill="#84BE84" rx="3" ry="3" style="stroke:#038048;stroke-width:1.0;"/><text fill="#000000" font-family="sans-serif" font-size="11" lengthAdjust="spacing" textLength="49" x="132" y="118.6245">setters()</text><ellipse cx="123" cy="128.2188" fill="#84BE84" rx="3" ry="3" style="stroke:#038048;stroke-width:1.0;"/><text fill="#000000" font-family="sans-serif" font-size="11" lengthAdjust="spacing" textLength="34" x="132" y="131.4292">print()</text><!--MD5=[5c3194fc6ca828fb4753be31a844d65c]
class FicheTechnique--><rect codeLine="9" fill="#FEFECE" filter="url(#f96fu34yzcahz)" height="201.6563" id="FicheTechnique" style="stroke:#A80036;stroke-width:1.5;" width="149" x="163" y="218"/><ellipse cx="186.55" cy="234" fill="#ADD1B2" rx="11" ry="11" style="stroke:#A80036;stroke-width:1.0;"/><path d="M189.5188,239.6406 Q188.9406,239.9375 188.3,240.0781 Q187.6594,240.2344 186.9563,240.2344 Q184.4563,240.2344 183.1281,238.5938 Q181.8156,236.9375 181.8156,233.8125 Q181.8156,230.6875 183.1281,229.0313 Q184.4563,227.375 186.9563,227.375 Q187.6594,227.375 188.3,227.5313 Q188.9563,227.6875 189.5188,227.9844 L189.5188,230.7031 Q188.8938,230.125 188.3,229.8594 Q187.7063,229.5781 187.0813,229.5781 Q185.7375,229.5781 185.05,230.6563 Q184.3625,231.7188 184.3625,233.8125 Q184.3625,235.9063 185.05,236.9844 Q185.7375,238.0469 187.0813,238.0469 Q187.7063,238.0469 188.3,237.7813 Q188.8938,237.5 189.5188,236.9219 L189.5188,239.6406 Z " fill="#000000"/><text fill="#000000" font-family="sans-serif" font-size="12" lengthAdjust="spacing" textLength="98" x="202.45" y="238.1543">FicheTechnique</text><line style="stroke:#A80036;stroke-width:1.5;" x1="164" x2="311" y1="250" y2="250"/><rect fill="none" height="6" style="stroke:#C82930;stroke-width:1.0;" width="6" x="171" y="258"/><text fill="#000000" font-family="sans-serif" font-size="11" lengthAdjust="spacing" textLength="109" x="183" y="264.2104">String responsable</text><rect fill="none" height="6" style="stroke:#C82930;stroke-width:1.0;" width="6" x="171" y="270.8047"/><text fill="#000000" font-family="sans-serif" font-size="11" lengthAdjust="spacing" textLength="76" x="183" y="277.0151">int nbCouvert</text><rect fill="none" height="6" style="stroke:#C82930;stroke-width:1.0;" width="6" x="171" y="283.6094"/><text fill="#000000" font-family="sans-serif" font-size="11" lengthAdjust="spacing" textLength="108" x="183" y="289.8198">double coutMatiere</text><rect fill="none" height="6" style="stroke:#C82930;stroke-width:1.0;" width="6" x="171" y="296.4141"/><text fill="#000000" font-family="sans-serif" font-size="11" lengthAdjust="spacing" textLength="99" x="183" y="302.6245">double coutFluide</text><rect fill="none" height="6" style="stroke:#C82930;stroke-width:1.0;" width="6" x="171" y="309.2188"/><text fill="#000000" font-family="sans-serif" font-size="11" lengthAdjust="spacing" textLength="121" x="183" y="315.4292">double coutElectricite</text><rect fill="none" height="6" style="stroke:#C82930;stroke-width:1.0;" width="6" x="171" y="322.0234"/><text fill="#000000" font-family="sans-serif" font-size="11" lengthAdjust="spacing" textLength="123" x="183" y="328.2339">double coutPersonnel</text><rect fill="none" height="6" style="stroke:#C82930;stroke-width:1.0;" width="6" x="171" y="334.8281"/><text fill="#000000" font-family="sans-serif" font-size="11" lengthAdjust="spacing" textLength="92" x="183" y="341.0386">double coefMulti</text><rect fill="none" height="6" style="stroke:#C82930;stroke-width:1.0;" width="6" x="171" y="347.6328"/><text fill="#000000" font-family="sans-serif" font-size="11" lengthAdjust="spacing" textLength="63" x="183" y="353.8433">double TVA</text><line style="stroke:#A80036;stroke-width:1.5;" x1="164" x2="311" y1="360.4375" y2="360.4375"/><ellipse cx="174" cy="371.4375" fill="#84BE84" rx="3" ry="3" style="stroke:#038048;stroke-width:1.0;"/><text fill="#000000" font-family="sans-serif" font-size="11" lengthAdjust="spacing" textLength="74" x="183" y="374.6479">«cons»FT(...)</text><ellipse cx="174" cy="384.2422" fill="#84BE84" rx="3" ry="3" style="stroke:#038048;stroke-width:1.0;"/><text fill="#000000" font-family="sans-serif" font-size="11" lengthAdjust="spacing" textLength="49" x="183" y="387.4526">getters()</text><ellipse cx="174" cy="397.0469" fill="#84BE84" rx="3" ry="3" style="stroke:#038048;stroke-width:1.0;"/><text fill="#000000" font-family="sans-serif" font-size="11" lengthAdjust="spacing" textLength="49" x="183" y="400.2573">setters()</text><ellipse cx="174" cy="409.8516" fill="#84BE84" rx="3" ry="3" style="stroke:#038048;stroke-width:1.0;"/><text fill="#000000" font-family="sans-serif" font-size="11" lengthAdjust="spacing" textLength="34" x="183" y="413.062">print()</text><!--MD5=[f06b1e59d2133e97d003094ceebb5bb7]
class Etape--><rect codeLine="24" fill="#FEFECE" filter="url(#f96fu34yzcahz)" height="124.8281" id="Etape" style="stroke:#A80036;stroke-width:1.5;" width="127" x="174" y="481"/><ellipse cx="215.1" cy="497" fill="#ADD1B2" rx="11" ry="11" style="stroke:#A80036;stroke-width:1.0;"/><path d="M218.0688,502.6406 Q217.4906,502.9375 216.85,503.0781 Q216.2094,503.2344 215.5063,503.2344 Q213.0063,503.2344 211.6781,501.5938 Q210.3656,499.9375 210.3656,496.8125 Q210.3656,493.6875 211.6781,492.0313 Q213.0063,490.375 215.5063,490.375 Q216.2094,490.375 216.85,490.5313 Q217.5063,490.6875 218.0688,490.9844 L218.0688,493.7031 Q217.4438,493.125 216.85,492.8594 Q216.2563,492.5781 215.6313,492.5781 Q214.2875,492.5781 213.6,493.6563 Q212.9125,494.7188 212.9125,496.8125 Q212.9125,498.9063 213.6,499.9844 Q214.2875,501.0469 215.6313,501.0469 Q216.2563,501.0469 216.85,500.7813 Q217.4438,500.5 218.0688,499.9219 L218.0688,502.6406 Z " fill="#000000"/><text fill="#000000" font-family="sans-serif" font-size="12" lengthAdjust="spacing" textLength="37" x="234.9" y="501.1543">Etape</text><line style="stroke:#A80036;stroke-width:1.5;" x1="175" x2="300" y1="513" y2="513"/><rect fill="none" height="6" style="stroke:#C82930;stroke-width:1.0;" width="6" x="182" y="521"/><text fill="#000000" font-family="sans-serif" font-size="11" lengthAdjust="spacing" textLength="95" x="194" y="527.2104">String numEtape</text><rect fill="none" height="6" style="stroke:#C82930;stroke-width:1.0;" width="6" x="182" y="533.8047"/><text fill="#000000" font-family="sans-serif" font-size="11" lengthAdjust="spacing" textLength="101" x="194" y="540.0151">String description</text><rect fill="none" height="6" style="stroke:#C82930;stroke-width:1.0;" width="6" x="182" y="546.6094"/><text fill="#000000" font-family="sans-serif" font-size="11" lengthAdjust="spacing" textLength="51" x="194" y="552.8198">int duree</text><line style="stroke:#A80036;stroke-width:1.5;" x1="175" x2="300" y1="559.4141" y2="559.4141"/><ellipse cx="185" cy="570.4141" fill="#84BE84" rx="3" ry="3" style="stroke:#038048;stroke-width:1.0;"/><text fill="#000000" font-family="sans-serif" font-size="11" lengthAdjust="spacing" textLength="93" x="194" y="573.6245">«cons»Etape(...)</text><ellipse cx="185" cy="583.2188" fill="#84BE84" rx="3" ry="3" style="stroke:#038048;stroke-width:1.0;"/><text fill="#000000" font-family="sans-serif" font-size="11" lengthAdjust="spacing" textLength="49" x="194" y="586.4292">getters()</text><ellipse cx="185" cy="596.0234" fill="#84BE84" rx="3" ry="3" style="stroke:#038048;stroke-width:1.0;"/><text fill="#000000" font-family="sans-serif" font-size="11" lengthAdjust="spacing" textLength="49" x="194" y="599.2339">setters()</text><!--MD5=[91ffdd76f1c8795364bfc7c752e5da6a]
class Ingredient--><rect codeLine="34" fill="#FEFECE" filter="url(#f96fu34yzcahz)" height="150.4375" id="Ingredient" style="stroke:#A80036;stroke-width:1.5;" width="144" x="258.5" y="7"/><ellipse cx="295.1" cy="23" fill="#ADD1B2" rx="11" ry="11" style="stroke:#A80036;stroke-width:1.0;"/><path d="M298.0688,28.6406 Q297.4906,28.9375 296.85,29.0781 Q296.2094,29.2344 295.5063,29.2344 Q293.0063,29.2344 291.6781,27.5938 Q290.3656,25.9375 290.3656,22.8125 Q290.3656,19.6875 291.6781,18.0313 Q293.0063,16.375 295.5063,16.375 Q296.2094,16.375 296.85,16.5313 Q297.5063,16.6875 298.0688,16.9844 L298.0688,19.7031 Q297.4438,19.125 296.85,18.8594 Q296.2563,18.5781 295.6313,18.5781 Q294.2875,18.5781 293.6,19.6563 Q292.9125,20.7188 292.9125,22.8125 Q292.9125,24.9063 293.6,25.9844 Q294.2875,27.0469 295.6313,27.0469 Q296.2563,27.0469 296.85,26.7813 Q297.4438,26.5 298.0688,25.9219 L298.0688,28.6406 Z " fill="#000000"/><text fill="#000000" font-family="sans-serif" font-size="12" lengthAdjust="spacing" textLength="64" x="313.9" y="27.1543">Ingredient</text><line style="stroke:#A80036;stroke-width:1.5;" x1="259.5" x2="401.5" y1="39" y2="39"/><rect fill="none" height="6" style="stroke:#C82930;stroke-width:1.0;" width="6" x="266.5" y="47"/><text fill="#000000" font-family="sans-serif" font-size="11" lengthAdjust="spacing" textLength="45" x="278.5" y="53.2104">int code</text><rect fill="none" height="6" style="stroke:#C82930;stroke-width:1.0;" width="6" x="266.5" y="59.8047"/><text fill="#000000" font-family="sans-serif" font-size="11" lengthAdjust="spacing" textLength="70" x="278.5" y="66.0151">String name</text><rect fill="none" height="6" style="stroke:#C82930;stroke-width:1.0;" width="6" x="266.5" y="72.6094"/><text fill="#000000" font-family="sans-serif" font-size="11" lengthAdjust="spacing" textLength="61" x="278.5" y="78.8198">Unite unite</text><rect fill="none" height="6" style="stroke:#C82930;stroke-width:1.0;" width="6" x="266.5" y="85.4141"/><text fill="#000000" font-family="sans-serif" font-size="11" lengthAdjust="spacing" textLength="94" x="278.5" y="91.6245">float prixUnitaire</text><rect fill="none" height="6" style="stroke:#C82930;stroke-width:1.0;" width="6" x="266.5" y="98.2188"/><text fill="#000000" font-family="sans-serif" font-size="11" lengthAdjust="spacing" textLength="102" x="278.5" y="104.4292">boolean allergene</text><line style="stroke:#A80036;stroke-width:1.5;" x1="259.5" x2="401.5" y1="111.0234" y2="111.0234"/><ellipse cx="269.5" cy="122.0234" fill="#84BE84" rx="3" ry="3" style="stroke:#038048;stroke-width:1.0;"/><text fill="#000000" font-family="sans-serif" font-size="11" lengthAdjust="spacing" textLength="118" x="278.5" y="125.2339">«cons»Ingredient(...)</text><ellipse cx="269.5" cy="134.8281" fill="#84BE84" rx="3" ry="3" style="stroke:#038048;stroke-width:1.0;"/><text fill="#000000" font-family="sans-serif" font-size="11" lengthAdjust="spacing" textLength="49" x="278.5" y="138.0386">getters()</text><ellipse cx="269.5" cy="147.6328" fill="#84BE84" rx="3" ry="3" style="stroke:#038048;stroke-width:1.0;"/><text fill="#000000" font-family="sans-serif" font-size="11" lengthAdjust="spacing" textLength="49" x="278.5" y="150.8433">setters()</text><!--MD5=[c6c32a8b8881930fd2025010c62372a0]
class Etiquette--><rect codeLine="45" fill="#FEFECE" filter="url(#f96fu34yzcahz)" height="124.8281" id="Etiquette" style="stroke:#A80036;stroke-width:1.5;" width="121" x="7" y="256.5"/><ellipse cx="35.95" cy="272.5" fill="#ADD1B2" rx="11" ry="11" style="stroke:#A80036;stroke-width:1.0;"/><path d="M38.9188,278.1406 Q38.3406,278.4375 37.7,278.5781 Q37.0594,278.7344 36.3563,278.7344 Q33.8563,278.7344 32.5281,277.0938 Q31.2156,275.4375 31.2156,272.3125 Q31.2156,269.1875 32.5281,267.5313 Q33.8563,265.875 36.3563,265.875 Q37.0594,265.875 37.7,266.0313 Q38.3563,266.1875 38.9188,266.4844 L38.9188,269.2031 Q38.2938,268.625 37.7,268.3594 Q37.1063,268.0781 36.4813,268.0781 Q35.1375,268.0781 34.45,269.1563 Q33.7625,270.2188 33.7625,272.3125 Q33.7625,274.4063 34.45,275.4844 Q35.1375,276.5469 36.4813,276.5469 Q37.1063,276.5469 37.7,276.2813 Q38.2938,276 38.9188,275.4219 L38.9188,278.1406 Z " fill="#000000"/><text fill="#000000" font-family="sans-serif" font-size="12" lengthAdjust="spacing" textLength="58" x="53.05" y="276.6543">Etiquette</text><line style="stroke:#A80036;stroke-width:1.5;" x1="8" x2="127" y1="288.5" y2="288.5"/><rect fill="none" height="6" style="stroke:#C82930;stroke-width:1.0;" width="6" x="15" y="296.5"/><text fill="#000000" font-family="sans-serif" font-size="11" lengthAdjust="spacing" textLength="90" x="27" y="302.7104">Date fabrication</text><rect fill="none" height="6" style="stroke:#C82930;stroke-width:1.0;" width="6" x="15" y="309.3047"/><text fill="#000000" font-family="sans-serif" font-size="11" lengthAdjust="spacing" textLength="95" x="27" y="315.5151">Date peremption</text><line style="stroke:#A80036;stroke-width:1.5;" x1="8" x2="127" y1="322.1094" y2="322.1094"/><ellipse cx="18" cy="333.1094" fill="#84BE84" rx="3" ry="3" style="stroke:#038048;stroke-width:1.0;"/><text fill="#000000" font-family="sans-serif" font-size="11" lengthAdjust="spacing" textLength="82" x="27" y="336.3198">«cons»Plat(...)</text><ellipse cx="18" cy="345.9141" fill="#84BE84" rx="3" ry="3" style="stroke:#038048;stroke-width:1.0;"/><text fill="#000000" font-family="sans-serif" font-size="11" lengthAdjust="spacing" textLength="49" x="27" y="349.1245">getters()</text><ellipse cx="18" cy="358.7188" fill="#84BE84" rx="3" ry="3" style="stroke:#038048;stroke-width:1.0;"/><text fill="#000000" font-family="sans-serif" font-size="11" lengthAdjust="spacing" textLength="49" x="27" y="361.9292">getters()</text><ellipse cx="18" cy="371.5234" fill="#84BE84" rx="3" ry="3" style="stroke:#038048;stroke-width:1.0;"/><text fill="#000000" font-family="sans-serif" font-size="11" lengthAdjust="spacing" textLength="34" x="27" y="374.7339">print()</text><!--MD5=[e489f463506f5c59d39c3dc979dbc1f1]
class Unite--><rect codeLine="54" fill="#FEFECE" filter="url(#f96fu34yzcahz)" height="86.4141" id="Unite" style="stroke:#A80036;stroke-width:1.5;" width="65" x="12" y="39"/><ellipse cx="27" cy="55" fill="#EB937F" rx="11" ry="11" style="stroke:#A80036;stroke-width:1.0;"/><path d="M31.1094,61 L23.3906,61 L23.3906,48.6094 L31.1094,48.6094 L31.1094,50.7656 L25.8438,50.7656 L25.8438,53.4375 L30.6094,53.4375 L30.6094,55.5938 L25.8438,55.5938 L25.8438,58.8438 L31.1094,58.8438 L31.1094,61 Z " fill="#000000"/><text fill="#000000" font-family="sans-serif" font-size="12" lengthAdjust="spacing" textLength="33" x="41" y="59.1543">Unite</text><line style="stroke:#A80036;stroke-width:1.5;" x1="13" x2="76" y1="71" y2="71"/><text fill="#000000" font-family="sans-serif" font-size="11" lengthAdjust="spacing" textLength="13" x="18" y="85.2104">kg</text><text fill="#000000" font-family="sans-serif" font-size="11" lengthAdjust="spacing" textLength="6" x="18" y="98.0151">L</text><text fill="#000000" font-family="sans-serif" font-size="11" lengthAdjust="spacing" textLength="20" x="18" y="110.8198">pce</text><line style="stroke:#A80036;stroke-width:1.5;" x1="13" x2="76" y1="117.4141" y2="117.4141"/><!--MD5=[d6fd24ea1ce23e2b5b7f4c5ec7fedcbd]
class StockManager--><rect codeLine="60" fill="#FEFECE" filter="url(#f96fu34yzcahz)" height="150.4375" id="StockManager" style="stroke:#A80036;stroke-width:1.5;" width="249" x="438" y="7"/><ellipse cx="513.25" cy="23" fill="#ADD1B2" rx="11" ry="11" style="stroke:#A80036;stroke-width:1.0;"/><path d="M516.2188,28.6406 Q515.6406,28.9375 515,29.0781 Q514.3594,29.2344 513.6563,29.2344 Q511.1563,29.2344 509.8281,27.5938 Q508.5156,25.9375 508.5156,22.8125 Q508.5156,19.6875 509.8281,18.0313 Q511.1563,16.375 513.6563,16.375 Q514.3594,16.375 515,16.5313 Q515.6563,16.6875 516.2188,16.9844 L516.2188,19.7031 Q515.5938,19.125 515,18.8594 Q514.4063,18.5781 513.7813,18.5781 Q512.4375,18.5781 511.75,19.6563 Q511.0625,20.7188 511.0625,22.8125 Q511.0625,24.9063 511.75,25.9844 Q512.4375,27.0469 513.7813,27.0469 Q514.4063,27.0469 515,26.7813 Q515.5938,26.5 516.2188,25.9219 L516.2188,28.6406 Z " fill="#000000"/><text fill="#000000" font-family="sans-serif" font-size="12" lengthAdjust="spacing" textLength="90" x="533.75" y="27.1543">StockManager</text><line style="stroke:#A80036;stroke-width:1.5;" x1="439" x2="686" y1="39" y2="39"/><ellipse cx="449" cy="50" rx="3" ry="3" style="stroke:#038048;stroke-width:1.0;fill:none;"/><text fill="#000000" font-family="sans-serif" font-size="11" lengthAdjust="spacing" textLength="16" x="458" y="53.2104">DB</text><line style="stroke:#A80036;stroke-width:1.5;" x1="439" x2="686" y1="59.8047" y2="59.8047"/><ellipse cx="449" cy="70.8047" fill="#84BE84" rx="3" ry="3" style="stroke:#038048;stroke-width:1.0;"/><text fill="#000000" font-family="sans-serif" font-size="11" lengthAdjust="spacing" textLength="129" x="458" y="74.0151">«cons»StockManager()</text><ellipse cx="449" cy="83.6094" fill="#84BE84" rx="3" ry="3" style="stroke:#038048;stroke-width:1.0;"/><text fill="#000000" font-family="sans-serif" font-size="11" lengthAdjust="spacing" textLength="65" x="458" y="86.8198">printStock()</text><ellipse cx="449" cy="96.4141" fill="#84BE84" rx="3" ry="3" style="stroke:#038048;stroke-width:1.0;"/><text fill="#000000" font-family="sans-serif" font-size="11" lengthAdjust="spacing" textLength="201" x="458" y="99.6245">addStock(int code, double quantite)</text><ellipse cx="449" cy="109.2188" fill="#84BE84" rx="3" ry="3" style="stroke:#038048;stroke-width:1.0;"/><text fill="#000000" font-family="sans-serif" font-size="11" lengthAdjust="spacing" textLength="223" x="458" y="112.4292">removeStock(int code, double quantite)</text><ellipse cx="449" cy="122.0234" fill="#84BE84" rx="3" ry="3" style="stroke:#038048;stroke-width:1.0;"/><text fill="#000000" font-family="sans-serif" font-size="11" lengthAdjust="spacing" textLength="209" x="458" y="125.2339">modifyStock(int code, attribut, value)</text><ellipse cx="449" cy="134.8281" fill="#84BE84" rx="3" ry="3" style="stroke:#038048;stroke-width:1.0;"/><text fill="#000000" font-family="sans-serif" font-size="11" lengthAdjust="spacing" textLength="87" x="458" y="138.0386">createStock(...)</text><ellipse cx="449" cy="147.6328" fill="#84BE84" rx="3" ry="3" style="stroke:#038048;stroke-width:1.0;"/><text fill="#000000" font-family="sans-serif" font-size="11" lengthAdjust="spacing" textLength="94" x="458" y="150.8433">removeStock(...)</text><!--MD5=[ad4768972a3e599d917377bac29546d8]
reverse link Fiche to FicheTechnique--><path codeLine="71" d="M189.7765,157.4218 C195.4419,176.6032 201.6221,197.5277 207.5995,217.7656 " fill="none" id="Fiche-backto-FicheTechnique" style="stroke:#A80036;stroke-width:1.0;"/><polygon fill="none" points="183.041,159.3294,184.089,138.1657,196.4676,155.3637,183.041,159.3294" style="stroke:#A80036;stroke-width:1.0;"/><!--MD5=[6f1854b4625700ad5ab30d654f15dd6e]
link FicheTechnique to FicheTechnique--><path codeLine="72" d="M324.0724,296.7277 C324.0724,296.7277 347,307.725 347,319 C347,330.275 338.214,337.6385 325.2141,341.0903 " fill="none" id="FicheTechnique-FicheTechnique" style="stroke:#A80036;stroke-width:1.0;"/><polygon fill="#A80036" points="312.2219,343.1608,321.7392,345.6946,317.1596,342.3739,320.4803,337.7943,312.2219,343.1608" style="stroke:#A80036;stroke-width:1.0;"/><line style="stroke:#A80036;stroke-width:1.0;" x1="317.1596" x2="325.06" y1="342.3739" y2="341.1148"/><polygon fill="#FFFFFF" points="312.2219,294.8392,317.5176,299.7336,324.0724,296.7277,318.7766,291.8333,312.2219,294.8392" style="stroke:#A80036;stroke-width:1.0;"/><polygon fill="#000000" points="355.4839,322.6528,351.2895,314.1171,347.0734,318.2127,355.4839,322.6528" style="stroke:#000000;stroke-width:1.0;"/><text fill="#000000" font-family="sans-serif" font-size="13" lengthAdjust="spacing" textLength="101" x="366" y="323.5669">recette de base</text><!--MD5=[0fa8cdd50e99978a59ed49d3c34dd00f]
reverse link Fiche to Etiquette--><path codeLine="73" d="M135.931,156.8184 C122.4516,188.7647 106.8942,225.6358 94.0223,256.1421 " fill="none" id="Fiche-backto-Etiquette" style="stroke:#A80036;stroke-width:1.0;"/><polygon fill="none" points="129.5769,153.8713,143.8014,138.1657,142.4757,159.3138,129.5769,153.8713" style="stroke:#A80036;stroke-width:1.0;"/><!--MD5=[dad382870da5ef916a4b8df07c4d097e]
reverse link Fiche to Ingredient--><path codeLine="74" d="M236.4142,82 C243.7483,82 251.0824,82 258.4165,82 " fill="none" id="Fiche-backto-Ingredient" style="stroke:#A80036;stroke-width:1.0;"/><polygon fill="#FFFFFF" points="223.2129,82,229.2129,86,235.2129,82,229.2129,78,223.2129,82" style="stroke:#A80036;stroke-width:1.0;"/><text fill="#000000" font-family="sans-serif" font-size="13" lengthAdjust="spacing" textLength="8" x="230.8636" y="78.113">1</text><text fill="#000000" font-family="sans-serif" font-size="13" lengthAdjust="spacing" textLength="7" x="243.622" y="78.2777">*</text><!--MD5=[82517300c77229d0099ac67db0fa026d]
link Unite to Fiche--><!--MD5=[df816b76e798e7bb82eacdb7df41ce85]
reverse link FicheTechnique to Etape--><path codeLine="76" d="M237.5,433.2363 C237.5,449.6528 237.5,466.0126 237.5,480.9106 " fill="none" id="FicheTechnique-backto-Etape" style="stroke:#A80036;stroke-width:1.0;"/><polygon fill="#FFFFFF" points="237.5,420.0853,233.5,426.0853,237.5,432.0853,241.5,426.0853,237.5,420.0853" style="stroke:#A80036;stroke-width:1.0;"/><text fill="#000000" font-family="sans-serif" font-size="13" lengthAdjust="spacing" textLength="8" x="229.2188" y="439.8039">1</text><text fill="#000000" font-family="sans-serif" font-size="13" lengthAdjust="spacing" textLength="7" x="230.0953" y="469.891">*</text><!--MD5=[3f4455db24f8dffab9b4a68a16692f72]
link Etiquette to FicheTechnique--><!--MD5=[435f76dee79d203a5a569c1d230a19a2]
@startuml
abstract Fiche {
  - String intitule
  - double PTVTTC
  +getters()
  +setters()
  +print()
}

class FicheTechnique {
  - String responsable
  - int nbCouvert
  - double coutMatiere
  - double coutFluide
  - double coutElectricite
  - double coutPersonnel
  - double coefMulti
  - double TVA
  +<<cons>>FT(...)
  +getters()
  +setters()
  +print()
}

class Etape {
  - String numEtape
  - String description
  - int duree
  +<<cons>>Etape(...)
  +getters()
  +setters()
  
}

class Ingredient {
  - int code
  - String name
  - Unite unite
  - float prixUnitaire
  - boolean allergene
  +<<cons>>Ingredient(...)
  +getters()
  +setters()
}

class Etiquette {
  - Date fabrication
  - Date peremption
  +<<cons>>Plat(...)
  +getters()
  +getters()
  +print()
}

enum Unite {
  kg
  L
  U
}

class StockManager {
  +DB
  +<<cons>>StockManager()
  +printStock()
  +addStock(int code, double quantite)
  +removeStock(int code, double quantite)
  +modifyStock(int code, attribut, value)
  +createStock(...)
  +removeStock(...)
}

Fiche <|- - FicheTechnique
FicheTechnique o-down-> FicheTechnique : > recette de base
Fiche <|- - Etiquette
Fiche "1" o-right- "*" Ingredient
Fiche -left[hidden]- Unite
FicheTechnique "1" o-down- "*" Etape
Etiquette -right[hidden]- FicheTechnique
@enduml

PlantUML version 1.2021.7(Sun May 23 12:40:07 UTC 2021)
(GPL source distribution)
Java Runtime: OpenJDK Runtime Environment
JVM: OpenJDK 64-Bit Server VM
Default Encoding: UTF-8
Language: en
Country: US
--></g></svg>
