<?xml version="1.0" encoding="UTF-8" standalone="no"?><svg xmlns="http://www.w3.org/2000/svg" xmlns:xlink="http://www.w3.org/1999/xlink" contentScriptType="application/ecmascript" contentStyleType="text/css" height="432px" preserveAspectRatio="none" style="width:862px;height:432px;background:#FFFFFF;" version="1.1" viewBox="0 0 862 432" width="862px" zoomAndPan="magnify"><defs><filter height="300%" id="fdufhu40ij25c" width="300%" x="-1" y="-1"><feGaussianBlur result="blurOut" stdDeviation="2.0"/><feColorMatrix in="blurOut" result="blurOut2" type="matrix" values="0 0 0 0 0 0 0 0 0 0 0 0 0 0 0 0 0 0 .4 0"/><feOffset dx="4.0" dy="4.0" in="blurOut2" result="blurOut3"/><feBlend in="SourceGraphic" in2="blurOut3" mode="normal"/></filter></defs><g><!--MD5=[d4d1e65b96ab2c2b104d895ec1814e3e]
class Fiche--><rect codeLine="1" fill="#FEFECE" filter="url(#fdufhu40ij25c)" height="112.0234" id="Fiche" style="stroke:#A80036;stroke-width:1.5;" width="111" x="273" y="26"/><ellipse cx="308.7" cy="42" fill="#A9DCDF" rx="11" ry="11" style="stroke:#A80036;stroke-width:1.0;"/><path d="M308.8094,37.3438 L307.6531,42.4219 L309.9813,42.4219 L308.8094,37.3438 Z M307.325,35.1094 L310.3094,35.1094 L313.6688,47.5 L311.2156,47.5 L310.45,44.4375 L307.1688,44.4375 L306.4188,47.5 L303.9813,47.5 L307.325,35.1094 Z " fill="#000000"/><text fill="#000000" font-family="sans-serif" font-size="12" font-style="italic" lengthAdjust="spacing" textLength="33" x="327.3" y="46.1543">Fiche</text><line style="stroke:#A80036;stroke-width:1.5;" x1="274" x2="383" y1="58" y2="58"/><rect fill="none" height="6" style="stroke:#C82930;stroke-width:1.0;" width="6" x="281" y="66"/><text fill="#000000" font-family="sans-serif" font-size="11" lengthAdjust="spacing" textLength="76" x="293" y="72.2104">String intitule</text><rect fill="none" height="6" style="stroke:#C82930;stroke-width:1.0;" width="6" x="281" y="78.8047"/><text fill="#000000" font-family="sans-serif" font-size="11" lengthAdjust="spacing" textLength="85" x="293" y="85.0151">double PTVTTC</text><line style="stroke:#A80036;stroke-width:1.5;" x1="274" x2="383" y1="91.6094" y2="91.6094"/><ellipse cx="284" cy="102.6094" fill="#84BE84" rx="3" ry="3" style="stroke:#038048;stroke-width:1.0;"/><text fill="#000000" font-family="sans-serif" font-size="11" lengthAdjust="spacing" textLength="49" x="293" y="105.8198">getters()</text><ellipse cx="284" cy="115.4141" fill="#84BE84" rx="3" ry="3" style="stroke:#038048;stroke-width:1.0;"/><text fill="#000000" font-family="sans-serif" font-size="11" lengthAdjust="spacing" textLength="49" x="293" y="118.6245">setters()</text><ellipse cx="284" cy="128.2188" fill="#84BE84" rx="3" ry="3" style="stroke:#038048;stroke-width:1.0;"/><text fill="#000000" font-family="sans-serif" font-size="11" lengthAdjust="spacing" textLength="34" x="293" y="131.4292">print()</text><!--MD5=[5c3194fc6ca828fb4753be31a844d65c]
class FicheTechnique--><rect codeLine="9" fill="#FEFECE" filter="url(#fdufhu40ij25c)" height="201.6563" id="FicheTechnique" style="stroke:#A80036;stroke-width:1.5;" width="149" x="169" y="217"/><ellipse cx="192.55" cy="233" fill="#ADD1B2" rx="11" ry="11" style="stroke:#A80036;stroke-width:1.0;"/><path d="M195.5188,238.6406 Q194.9406,238.9375 194.3,239.0781 Q193.6594,239.2344 192.9563,239.2344 Q190.4563,239.2344 189.1281,237.5938 Q187.8156,235.9375 187.8156,232.8125 Q187.8156,229.6875 189.1281,228.0313 Q190.4563,226.375 192.9563,226.375 Q193.6594,226.375 194.3,226.5313 Q194.9563,226.6875 195.5188,226.9844 L195.5188,229.7031 Q194.8938,229.125 194.3,228.8594 Q193.7063,228.5781 193.0813,228.5781 Q191.7375,228.5781 191.05,229.6563 Q190.3625,230.7188 190.3625,232.8125 Q190.3625,234.9063 191.05,235.9844 Q191.7375,237.0469 193.0813,237.0469 Q193.7063,237.0469 194.3,236.7813 Q194.8938,236.5 195.5188,235.9219 L195.5188,238.6406 Z " fill="#000000"/><text fill="#000000" font-family="sans-serif" font-size="12" lengthAdjust="spacing" textLength="98" x="208.45" y="237.1543">FicheTechnique</text><line style="stroke:#A80036;stroke-width:1.5;" x1="170" x2="317" y1="249" y2="249"/><rect fill="none" height="6" style="stroke:#C82930;stroke-width:1.0;" width="6" x="177" y="257"/><text fill="#000000" font-family="sans-serif" font-size="11" lengthAdjust="spacing" textLength="109" x="189" y="263.2104">String responsable</text><rect fill="none" height="6" style="stroke:#C82930;stroke-width:1.0;" width="6" x="177" y="269.8047"/><text fill="#000000" font-family="sans-serif" font-size="11" lengthAdjust="spacing" textLength="76" x="189" y="276.0151">int nbCouvert</text><rect fill="none" height="6" style="stroke:#C82930;stroke-width:1.0;" width="6" x="177" y="282.6094"/><text fill="#000000" font-family="sans-serif" font-size="11" lengthAdjust="spacing" textLength="108" x="189" y="288.8198">double coutMatiere</text><rect fill="none" height="6" style="stroke:#C82930;stroke-width:1.0;" width="6" x="177" y="295.4141"/><text fill="#000000" font-family="sans-serif" font-size="11" lengthAdjust="spacing" textLength="99" x="189" y="301.6245">double coutFluide</text><rect fill="none" height="6" style="stroke:#C82930;stroke-width:1.0;" width="6" x="177" y="308.2188"/><text fill="#000000" font-family="sans-serif" font-size="11" lengthAdjust="spacing" textLength="121" x="189" y="314.4292">double coutElectricite</text><rect fill="none" height="6" style="stroke:#C82930;stroke-width:1.0;" width="6" x="177" y="321.0234"/><text fill="#000000" font-family="sans-serif" font-size="11" lengthAdjust="spacing" textLength="123" x="189" y="327.2339">double coutPersonnel</text><rect fill="none" height="6" style="stroke:#C82930;stroke-width:1.0;" width="6" x="177" y="333.8281"/><text fill="#000000" font-family="sans-serif" font-size="11" lengthAdjust="spacing" textLength="92" x="189" y="340.0386">double coefMulti</text><rect fill="none" height="6" style="stroke:#C82930;stroke-width:1.0;" width="6" x="177" y="346.6328"/><text fill="#000000" font-family="sans-serif" font-size="11" lengthAdjust="spacing" textLength="63" x="189" y="352.8433">double TVA</text><line style="stroke:#A80036;stroke-width:1.5;" x1="170" x2="317" y1="359.4375" y2="359.4375"/><ellipse cx="180" cy="370.4375" fill="#84BE84" rx="3" ry="3" style="stroke:#038048;stroke-width:1.0;"/><text fill="#000000" font-family="sans-serif" font-size="11" lengthAdjust="spacing" textLength="74" x="189" y="373.6479">«cons»FT(...)</text><ellipse cx="180" cy="383.2422" fill="#84BE84" rx="3" ry="3" style="stroke:#038048;stroke-width:1.0;"/><text fill="#000000" font-family="sans-serif" font-size="11" lengthAdjust="spacing" textLength="49" x="189" y="386.4526">getters()</text><ellipse cx="180" cy="396.0469" fill="#84BE84" rx="3" ry="3" style="stroke:#038048;stroke-width:1.0;"/><text fill="#000000" font-family="sans-serif" font-size="11" lengthAdjust="spacing" textLength="49" x="189" y="399.2573">setters()</text><ellipse cx="180" cy="408.8516" fill="#84BE84" rx="3" ry="3" style="stroke:#038048;stroke-width:1.0;"/><text fill="#000000" font-family="sans-serif" font-size="11" lengthAdjust="spacing" textLength="34" x="189" y="412.062">print()</text><!--MD5=[f06b1e59d2133e97d003094ceebb5bb7]
class Etape--><rect codeLine="24" fill="#FEFECE" filter="url(#fdufhu40ij25c)" height="124.8281" id="Etape" style="stroke:#A80036;stroke-width:1.5;" width="127" x="7" y="255.5"/><ellipse cx="48.1" cy="271.5" fill="#ADD1B2" rx="11" ry="11" style="stroke:#A80036;stroke-width:1.0;"/><path d="M51.0688,277.1406 Q50.4906,277.4375 49.85,277.5781 Q49.2094,277.7344 48.5063,277.7344 Q46.0063,277.7344 44.6781,276.0938 Q43.3656,274.4375 43.3656,271.3125 Q43.3656,268.1875 44.6781,266.5313 Q46.0063,264.875 48.5063,264.875 Q49.2094,264.875 49.85,265.0313 Q50.5063,265.1875 51.0688,265.4844 L51.0688,268.2031 Q50.4438,267.625 49.85,267.3594 Q49.2563,267.0781 48.6313,267.0781 Q47.2875,267.0781 46.6,268.1563 Q45.9125,269.2188 45.9125,271.3125 Q45.9125,273.4063 46.6,274.4844 Q47.2875,275.5469 48.6313,275.5469 Q49.2563,275.5469 49.85,275.2813 Q50.4438,275 51.0688,274.4219 L51.0688,277.1406 Z " fill="#000000"/><text fill="#000000" font-family="sans-serif" font-size="12" lengthAdjust="spacing" textLength="37" x="67.9" y="275.6543">Etape</text><line style="stroke:#A80036;stroke-width:1.5;" x1="8" x2="133" y1="287.5" y2="287.5"/><rect fill="none" height="6" style="stroke:#C82930;stroke-width:1.0;" width="6" x="15" y="295.5"/><text fill="#000000" font-family="sans-serif" font-size="11" lengthAdjust="spacing" textLength="95" x="27" y="301.7104">String numEtape</text><rect fill="none" height="6" style="stroke:#C82930;stroke-width:1.0;" width="6" x="15" y="308.3047"/><text fill="#000000" font-family="sans-serif" font-size="11" lengthAdjust="spacing" textLength="101" x="27" y="314.5151">String description</text><rect fill="none" height="6" style="stroke:#C82930;stroke-width:1.0;" width="6" x="15" y="321.1094"/><text fill="#000000" font-family="sans-serif" font-size="11" lengthAdjust="spacing" textLength="51" x="27" y="327.3198">int duree</text><line style="stroke:#A80036;stroke-width:1.5;" x1="8" x2="133" y1="333.9141" y2="333.9141"/><ellipse cx="18" cy="344.9141" fill="#84BE84" rx="3" ry="3" style="stroke:#038048;stroke-width:1.0;"/><text fill="#000000" font-family="sans-serif" font-size="11" lengthAdjust="spacing" textLength="93" x="27" y="348.1245">«cons»Etape(...)</text><ellipse cx="18" cy="357.7188" fill="#84BE84" rx="3" ry="3" style="stroke:#038048;stroke-width:1.0;"/><text fill="#000000" font-family="sans-serif" font-size="11" lengthAdjust="spacing" textLength="49" x="27" y="360.9292">getters()</text><ellipse cx="18" cy="370.5234" fill="#84BE84" rx="3" ry="3" style="stroke:#038048;stroke-width:1.0;"/><text fill="#000000" font-family="sans-serif" font-size="11" lengthAdjust="spacing" textLength="49" x="27" y="373.7339">setters()</text><!--MD5=[91ffdd76f1c8795364bfc7c752e5da6a]
class Ingredient--><rect codeLine="34" fill="#FEFECE" filter="url(#fdufhu40ij25c)" height="150.4375" id="Ingredient" style="stroke:#A80036;stroke-width:1.5;" width="144" x="419.5" y="7"/><ellipse cx="456.1" cy="23" fill="#ADD1B2" rx="11" ry="11" style="stroke:#A80036;stroke-width:1.0;"/><path d="M459.0688,28.6406 Q458.4906,28.9375 457.85,29.0781 Q457.2094,29.2344 456.5063,29.2344 Q454.0063,29.2344 452.6781,27.5938 Q451.3656,25.9375 451.3656,22.8125 Q451.3656,19.6875 452.6781,18.0313 Q454.0063,16.375 456.5063,16.375 Q457.2094,16.375 457.85,16.5313 Q458.5063,16.6875 459.0688,16.9844 L459.0688,19.7031 Q458.4438,19.125 457.85,18.8594 Q457.2563,18.5781 456.6313,18.5781 Q455.2875,18.5781 454.6,19.6563 Q453.9125,20.7188 453.9125,22.8125 Q453.9125,24.9063 454.6,25.9844 Q455.2875,27.0469 456.6313,27.0469 Q457.2563,27.0469 457.85,26.7813 Q458.4438,26.5 459.0688,25.9219 L459.0688,28.6406 Z " fill="#000000"/><text fill="#000000" font-family="sans-serif" font-size="12" lengthAdjust="spacing" textLength="64" x="474.9" y="27.1543">Ingredient</text><line style="stroke:#A80036;stroke-width:1.5;" x1="420.5" x2="562.5" y1="39" y2="39"/><rect fill="none" height="6" style="stroke:#C82930;stroke-width:1.0;" width="6" x="427.5" y="47"/><text fill="#000000" font-family="sans-serif" font-size="11" lengthAdjust="spacing" textLength="45" x="439.5" y="53.2104">int code</text><rect fill="none" height="6" style="stroke:#C82930;stroke-width:1.0;" width="6" x="427.5" y="59.8047"/><text fill="#000000" font-family="sans-serif" font-size="11" lengthAdjust="spacing" textLength="70" x="439.5" y="66.0151">String name</text><rect fill="none" height="6" style="stroke:#C82930;stroke-width:1.0;" width="6" x="427.5" y="72.6094"/><text fill="#000000" font-family="sans-serif" font-size="11" lengthAdjust="spacing" textLength="61" x="439.5" y="78.8198">Unite unite</text><rect fill="none" height="6" style="stroke:#C82930;stroke-width:1.0;" width="6" x="427.5" y="85.4141"/><text fill="#000000" font-family="sans-serif" font-size="11" lengthAdjust="spacing" textLength="94" x="439.5" y="91.6245">float prixUnitaire</text><rect fill="none" height="6" style="stroke:#C82930;stroke-width:1.0;" width="6" x="427.5" y="98.2188"/><text fill="#000000" font-family="sans-serif" font-size="11" lengthAdjust="spacing" textLength="102" x="439.5" y="104.4292">boolean allergene</text><line style="stroke:#A80036;stroke-width:1.5;" x1="420.5" x2="562.5" y1="111.0234" y2="111.0234"/><ellipse cx="430.5" cy="122.0234" fill="#84BE84" rx="3" ry="3" style="stroke:#038048;stroke-width:1.0;"/><text fill="#000000" font-family="sans-serif" font-size="11" lengthAdjust="spacing" textLength="118" x="439.5" y="125.2339">«cons»Ingredient(...)</text><ellipse cx="430.5" cy="134.8281" fill="#84BE84" rx="3" ry="3" style="stroke:#038048;stroke-width:1.0;"/><text fill="#000000" font-family="sans-serif" font-size="11" lengthAdjust="spacing" textLength="49" x="439.5" y="138.0386">getters()</text><ellipse cx="430.5" cy="147.6328" fill="#84BE84" rx="3" ry="3" style="stroke:#038048;stroke-width:1.0;"/><text fill="#000000" font-family="sans-serif" font-size="11" lengthAdjust="spacing" textLength="49" x="439.5" y="150.8433">setters()</text><!--MD5=[c6c32a8b8881930fd2025010c62372a0]
class Etiquette--><rect codeLine="45" fill="#FEFECE" filter="url(#fdufhu40ij25c)" height="124.8281" id="Etiquette" style="stroke:#A80036;stroke-width:1.5;" width="121" x="353" y="255.5"/><ellipse cx="381.95" cy="271.5" fill="#ADD1B2" rx="11" ry="11" style="stroke:#A80036;stroke-width:1.0;"/><path d="M384.9188,277.1406 Q384.3406,277.4375 383.7,277.5781 Q383.0594,277.7344 382.3563,277.7344 Q379.8563,277.7344 378.5281,276.0938 Q377.2156,274.4375 377.2156,271.3125 Q377.2156,268.1875 378.5281,266.5313 Q379.8563,264.875 382.3563,264.875 Q383.0594,264.875 383.7,265.0313 Q384.3563,265.1875 384.9188,265.4844 L384.9188,268.2031 Q384.2938,267.625 383.7,267.3594 Q383.1063,267.0781 382.4813,267.0781 Q381.1375,267.0781 380.45,268.1563 Q379.7625,269.2188 379.7625,271.3125 Q379.7625,273.4063 380.45,274.4844 Q381.1375,275.5469 382.4813,275.5469 Q383.1063,275.5469 383.7,275.2813 Q384.2938,275 384.9188,274.4219 L384.9188,277.1406 Z " fill="#000000"/><text fill="#000000" font-family="sans-serif" font-size="12" lengthAdjust="spacing" textLength="58" x="399.05" y="275.6543">Etiquette</text><line style="stroke:#A80036;stroke-width:1.5;" x1="354" x2="473" y1="287.5" y2="287.5"/><rect fill="none" height="6" style="stroke:#C82930;stroke-width:1.0;" width="6" x="361" y="295.5"/><text fill="#000000" font-family="sans-serif" font-size="11" lengthAdjust="spacing" textLength="90" x="373" y="301.7104">Date fabrication</text><rect fill="none" height="6" style="stroke:#C82930;stroke-width:1.0;" width="6" x="361" y="308.3047"/><text fill="#000000" font-family="sans-serif" font-size="11" lengthAdjust="spacing" textLength="95" x="373" y="314.5151">Date peremption</text><line style="stroke:#A80036;stroke-width:1.5;" x1="354" x2="473" y1="321.1094" y2="321.1094"/><ellipse cx="364" cy="332.1094" fill="#84BE84" rx="3" ry="3" style="stroke:#038048;stroke-width:1.0;"/><text fill="#000000" font-family="sans-serif" font-size="11" lengthAdjust="spacing" textLength="82" x="373" y="335.3198">«cons»Plat(...)</text><ellipse cx="364" cy="344.9141" fill="#84BE84" rx="3" ry="3" style="stroke:#038048;stroke-width:1.0;"/><text fill="#000000" font-family="sans-serif" font-size="11" lengthAdjust="spacing" textLength="49" x="373" y="348.1245">getters()</text><ellipse cx="364" cy="357.7188" fill="#84BE84" rx="3" ry="3" style="stroke:#038048;stroke-width:1.0;"/><text fill="#000000" font-family="sans-serif" font-size="11" lengthAdjust="spacing" textLength="49" x="373" y="360.9292">getters()</text><ellipse cx="364" cy="370.5234" fill="#84BE84" rx="3" ry="3" style="stroke:#038048;stroke-width:1.0;"/><text fill="#000000" font-family="sans-serif" font-size="11" lengthAdjust="spacing" textLength="34" x="373" y="373.7339">print()</text><!--MD5=[e489f463506f5c59d39c3dc979dbc1f1]
class Unite--><rect codeLine="54" fill="#FEFECE" filter="url(#fdufhu40ij25c)" height="86.4141" id="Unite" style="stroke:#A80036;stroke-width:1.5;" width="65" x="173" y="39"/><ellipse cx="188" cy="55" fill="#EB937F" rx="11" ry="11" style="stroke:#A80036;stroke-width:1.0;"/><path d="M192.1094,61 L184.3906,61 L184.3906,48.6094 L192.1094,48.6094 L192.1094,50.7656 L186.8438,50.7656 L186.8438,53.4375 L191.6094,53.4375 L191.6094,55.5938 L186.8438,55.5938 L186.8438,58.8438 L192.1094,58.8438 L192.1094,61 Z " fill="#000000"/><text fill="#000000" font-family="sans-serif" font-size="12" lengthAdjust="spacing" textLength="33" x="202" y="59.1543">Unite</text><line style="stroke:#A80036;stroke-width:1.5;" x1="174" x2="237" y1="71" y2="71"/><text fill="#000000" font-family="sans-serif" font-size="11" lengthAdjust="spacing" textLength="13" x="179" y="85.2104">kg</text><text fill="#000000" font-family="sans-serif" font-size="11" lengthAdjust="spacing" textLength="6" x="179" y="98.0151">L</text><text fill="#000000" font-family="sans-serif" font-size="11" lengthAdjust="spacing" textLength="20" x="179" y="110.8198">pce</text><line style="stroke:#A80036;stroke-width:1.5;" x1="174" x2="237" y1="117.4141" y2="117.4141"/><!--MD5=[d6fd24ea1ce23e2b5b7f4c5ec7fedcbd]
class StockManager--><rect codeLine="60" fill="#FEFECE" filter="url(#fdufhu40ij25c)" height="150.4375" id="StockManager" style="stroke:#A80036;stroke-width:1.5;" width="249" x="599" y="7"/><ellipse cx="674.25" cy="23" fill="#ADD1B2" rx="11" ry="11" style="stroke:#A80036;stroke-width:1.0;"/><path d="M677.2188,28.6406 Q676.6406,28.9375 676,29.0781 Q675.3594,29.2344 674.6563,29.2344 Q672.1563,29.2344 670.8281,27.5938 Q669.5156,25.9375 669.5156,22.8125 Q669.5156,19.6875 670.8281,18.0313 Q672.1563,16.375 674.6563,16.375 Q675.3594,16.375 676,16.5313 Q676.6563,16.6875 677.2188,16.9844 L677.2188,19.7031 Q676.5938,19.125 676,18.8594 Q675.4063,18.5781 674.7813,18.5781 Q673.4375,18.5781 672.75,19.6563 Q672.0625,20.7188 672.0625,22.8125 Q672.0625,24.9063 672.75,25.9844 Q673.4375,27.0469 674.7813,27.0469 Q675.4063,27.0469 676,26.7813 Q676.5938,26.5 677.2188,25.9219 L677.2188,28.6406 Z " fill="#000000"/><text fill="#000000" font-family="sans-serif" font-size="12" lengthAdjust="spacing" textLength="90" x="694.75" y="27.1543">StockManager</text><line style="stroke:#A80036;stroke-width:1.5;" x1="600" x2="847" y1="39" y2="39"/><ellipse cx="610" cy="50" rx="3" ry="3" style="stroke:#038048;stroke-width:1.0;fill:none;"/><text fill="#000000" font-family="sans-serif" font-size="11" lengthAdjust="spacing" textLength="16" x="619" y="53.2104">DB</text><line style="stroke:#A80036;stroke-width:1.5;" x1="600" x2="847" y1="59.8047" y2="59.8047"/><ellipse cx="610" cy="70.8047" fill="#84BE84" rx="3" ry="3" style="stroke:#038048;stroke-width:1.0;"/><text fill="#000000" font-family="sans-serif" font-size="11" lengthAdjust="spacing" textLength="129" x="619" y="74.0151">«cons»StockManager()</text><ellipse cx="610" cy="83.6094" fill="#84BE84" rx="3" ry="3" style="stroke:#038048;stroke-width:1.0;"/><text fill="#000000" font-family="sans-serif" font-size="11" lengthAdjust="spacing" textLength="65" x="619" y="86.8198">printStock()</text><ellipse cx="610" cy="96.4141" fill="#84BE84" rx="3" ry="3" style="stroke:#038048;stroke-width:1.0;"/><text fill="#000000" font-family="sans-serif" font-size="11" lengthAdjust="spacing" textLength="201" x="619" y="99.6245">addStock(int code, double quantite)</text><ellipse cx="610" cy="109.2188" fill="#84BE84" rx="3" ry="3" style="stroke:#038048;stroke-width:1.0;"/><text fill="#000000" font-family="sans-serif" font-size="11" lengthAdjust="spacing" textLength="223" x="619" y="112.4292">removeStock(int code, double quantite)</text><ellipse cx="610" cy="122.0234" fill="#84BE84" rx="3" ry="3" style="stroke:#038048;stroke-width:1.0;"/><text fill="#000000" font-family="sans-serif" font-size="11" lengthAdjust="spacing" textLength="209" x="619" y="125.2339">modifyStock(int code, attribut, value)</text><ellipse cx="610" cy="134.8281" fill="#84BE84" rx="3" ry="3" style="stroke:#038048;stroke-width:1.0;"/><text fill="#000000" font-family="sans-serif" font-size="11" lengthAdjust="spacing" textLength="87" x="619" y="138.0386">createStock(...)</text><ellipse cx="610" cy="147.6328" fill="#84BE84" rx="3" ry="3" style="stroke:#038048;stroke-width:1.0;"/><text fill="#000000" font-family="sans-serif" font-size="11" lengthAdjust="spacing" textLength="94" x="619" y="150.8433">removeStock(...)</text><!--MD5=[ad4768972a3e599d917377bac29546d8]
reverse link Fiche to FicheTechnique--><path codeLine="71" d="M301.3844,157.2855 C294.5504,176.26 287.1029,196.9378 279.8947,216.9513 " fill="none" id="Fiche-backto-FicheTechnique" style="stroke:#A80036;stroke-width:1.0;"/><polygon fill="none" points="294.8852,154.6727,308.2484,138.228,308.057,159.4168,294.8852,154.6727" style="stroke:#A80036;stroke-width:1.0;"/><!--MD5=[0fa8cdd50e99978a59ed49d3c34dd00f]
reverse link Fiche to Etiquette--><path codeLine="72" d="M355.5744,157.1713 C366.9422,188.7335 380.0134,225.0255 390.8589,255.1377 " fill="none" id="Fiche-backto-Etiquette" style="stroke:#A80036;stroke-width:1.0;"/><polygon fill="none" points="348.943,159.4168,348.7516,138.228,362.1148,154.6727,348.943,159.4168" style="stroke:#A80036;stroke-width:1.0;"/><!--MD5=[dad382870da5ef916a4b8df07c4d097e]
reverse link Fiche to Ingredient--><path codeLine="73" d="M397.4142,82 C404.7483,82 412.0824,82 419.4165,82 " fill="none" id="Fiche-backto-Ingredient" style="stroke:#A80036;stroke-width:1.0;"/><polygon fill="#FFFFFF" points="384.2129,82,390.2129,86,396.2129,82,390.2129,78,384.2129,82" style="stroke:#A80036;stroke-width:1.0;"/><text fill="#000000" font-family="sans-serif" font-size="13" lengthAdjust="spacing" textLength="8" x="391.8636" y="78.113">1</text><text fill="#000000" font-family="sans-serif" font-size="13" lengthAdjust="spacing" textLength="7" x="404.622" y="78.2777">*</text><!--MD5=[82517300c77229d0099ac67db0fa026d]
link Unite to Fiche--><!--MD5=[3d3c4963f6b2c2ab05ccb28331ab3987]
link Etape to FicheTechnique--><path codeLine="75" d="M134.0234,318 C141.1497,318 148.276,318 155.4022,318 " fill="none" id="Etape-to-FicheTechnique" style="stroke:#A80036;stroke-width:1.0;"/><polygon fill="#FFFFFF" points="168.6625,318,162.6625,314,156.6625,318,162.6625,322,168.6625,318" style="stroke:#A80036;stroke-width:1.0;"/><text fill="#000000" font-family="sans-serif" font-size="13" lengthAdjust="spacing" textLength="7" x="142.1919" y="314.1714">*</text><text fill="#000000" font-family="sans-serif" font-size="13" lengthAdjust="spacing" textLength="8" x="152.9019" y="314.3521">1</text><!--MD5=[ee51e0f15102ccd49cb64c34a923c848]
@startuml
abstract Fiche {
  - String intitule
  - double PTVTTC
  +getters()
  +setters()
  +print()
}

class FicheTechnique {
  - String responsable
  - int nbCouvert
  - double coutMatiere
  - double coutFluide
  - double coutElectricite
  - double coutPersonnel
  - double coefMulti
  - double TVA
  +<<cons>>FT(...)
  +getters()
  +setters()
  +print()
}

class Etape {
  - String numEtape
  - String description
  - int duree
  +<<cons>>Etape(...)
  +getters()
  +setters()
  
}

class Ingredient {
  - int code
  - String name
  - Unite unite
  - float prixUnitaire
  - boolean allergene
  +<<cons>>Ingredient(...)
  +getters()
  +setters()
}

class Etiquette {
  - Date fabrication
  - Date peremption
  +<<cons>>Plat(...)
  +getters()
  +getters()
  +print()
}

enum Unite {
  kg
  L
  pce
}

class StockManager {
  +DB
  +<<cons>>StockManager()
  +printStock()
  +addStock(int code, double quantite)
  +removeStock(int code, double quantite)
  +modifyStock(int code, attribut, value)
  +createStock(...)
  +removeStock(...)
}

Fiche <|- - FicheTechnique
Fiche <|- - Etiquette
Fiche "1" o-right- "*" Ingredient
Fiche -left[hidden]- Unite
FicheTechnique "1" o-left- "*" Etape
@enduml

PlantUML version 1.2021.7(Sun May 23 12:40:07 UTC 2021)
(GPL source distribution)
Java Runtime: OpenJDK Runtime Environment
JVM: OpenJDK 64-Bit Server VM
Default Encoding: UTF-8
Language: en
Country: US
--></g></svg>